# xmcd
#
# Track frame offsets: 
#        183
#        28018
#        53403
#        76878
#        92738
#        107658
#        138360
#        158053
#        177405
#        194073
#        219345
#        233513
#        257435
#        273443
#        287573
#        314553
#
# Disc length: 4519 seconds
#
# Revision: 3
# Processed by: cddbd v1.5.2PL0 Copyright (c) Steve Scherf et al.
# Submitted via: ExactAudioCopyFreeDBPlugin 1.0
#
DISCID=d611a510
DTITLE=Various Artist - The best in blues
DYEAR=1990
DGENRE=Blues
TTITLE0=Gary Moore - Still got the blues
TTITLE1=John Lee Hooker and Carlos Santana - The healer
TTITLE2=Jeff Healey Band - Hoochie coochie man
TTITLE3=Bonnie Raitt - The road's my middle name
TTITLE4=John Mayall - Let's work together
TTITLE5=Larry McCray - Country girl
TTITLE6=John Lee Hooker and Charles Musselwhite - That's allright
TTITLE7=Blues Band - Bad boy
TTITLE8=Etta James - The blues don't care
TTITLE9=Johnny Diesel and The Injectors - Since I fell for you
TTITLE10=Jan Akkerman - You can't keep a bad man up
TTITLE11=Tina Turner - Undercover agent for the blues
TTITLE12=Rocky Hill - Mississippi Delta blues
TTITLE13=J.J. Cale - End of the line
TTITLE14=Cowboy junkies - Walking after midnight
TTITLE15=Bruce Willis - Blues for Mr. D.
EXTD=
EXTT0=
EXTT1=
EXTT2=
EXTT3=
EXTT4=
EXTT5=
EXTT6=
EXTT7=
EXTT8=
EXTT9=
EXTT10=
EXTT11=
EXTT12=
EXTT13=
EXTT14=
EXTT15=
PLAYORDER=
